<svg width="28" height="29" viewBox="0 0 28 29" fill="none" xmlns="http://www.w3.org/2000/svg">
<g id="Icon">
<rect id="BG" y="0.358887" width="28" height="28" rx="4" fill="#83D187"/>
<g id="Vector">
<path d="M22.8737 18.1638V19.1427C22.8737 19.7905 22.4432 20.3445 21.8399 20.5608C21.8402 20.5855 21.8408 20.61 21.8408 20.6346V23.3039C23.0952 23.0566 24.0408 21.9985 24.0408 20.7346V18.1636L22.8737 18.1638Z" fill="#DDFFDF"/>
<path d="M14.7675 10.8072V9.78368C14.7675 8.89769 14.4219 8.03896 13.794 7.36534C13.2062 6.73477 12.4331 6.3341 11.5976 6.22292C11.4127 6.05288 11.075 5.74267 10.7364 5.43304C10.4436 5.16516 10.2096 4.95178 10.0403 4.79885C9.94329 4.71115 9.86196 4.63809 9.80428 4.58721C9.67809 4.47588 9.44341 4.26845 9.09566 4.40253L8.7235 4.54633L8.77233 6.74448L8.68062 6.80739C8.08217 7.21821 7.68132 7.85051 7.57833 8.54458L5.98195 9.55624L5.97661 10.2513C5.9728 10.7814 6.18703 11.2804 6.5801 11.6565C6.97332 12.0327 7.497 12.2399 8.05501 12.2399H9.27068V13.2591C9.27068 13.7654 9.35628 14.2657 9.52474 14.746L10.4259 17.3143V21.2154C9.48049 21.4265 8.77309 22.234 8.77095 23.1952L8.76897 23.3572L12.2484 23.3576C12.3436 22.4919 13.0121 21.7851 13.8855 21.5878V20.9075C13.8855 19.0462 15.4793 17.5321 17.4384 17.5321H17.5243V18.6409H17.4384C16.1229 18.6409 15.0527 19.6577 15.0527 20.9075V22.6415H14.3812C13.9194 22.6415 13.5311 22.9478 13.4295 23.3577L20.7081 23.3589V20.6347C20.7081 18.2146 19.7532 15.9053 18.0193 14.1323L14.7675 10.8072Z" fill="#DDFFDF"/>
</g>
</g>
</svg>
